<svg width="124" height="18" viewBox="0 0 124 18" fill="none" xmlns="http://www.w3.org/2000/svg">
<path d="M5.848 9.048C6.136 9.048 6.656 8.368 7.408 7.008C8.176 5.632 8.952 4.256 9.736 2.88C10.536 1.504 11.104 0.816 11.44 0.816C11.776 0.816 12.048 0.935999 12.256 1.176C12.464 1.416 12.568 1.704 12.568 2.04C12.568 2.376 12.264 3.048 11.656 4.056C11.048 5.064 10.232 6.4 9.208 8.064C8.184 9.712 7.16 11.504 6.136 13.44C5.112 15.376 4.408 16.584 4.024 17.064C3.64 17.544 3.328 17.784 3.088 17.784C2.736 17.784 2.56 17.496 2.56 16.92C2.56 16.472 2.784 15.792 3.232 14.88C3.376 14.608 3.488 14.384 3.568 14.208C3.648 14.016 3.776 13.752 3.952 13.416C4.128 13.08 4.264 12.824 4.36 12.648C4.456 12.456 4.6 12.168 4.792 11.784C5 11.384 5.152 11.096 5.248 10.92C4.304 10.68 3.432 10.088 2.632 9.144C1.848 8.184 1.248 7.12 0.832 5.952C0.416 4.768 0.208 3.616 0.208 2.496C0.208 1.376 0.528 0.816 1.168 0.816C1.424 0.816 1.624 1.064 1.768 1.56C1.928 2.056 2.12 2.768 2.344 3.696C2.568 4.624 2.864 5.48 3.232 6.264C3.6 7.032 4.04 7.688 4.552 8.232C5.064 8.776 5.496 9.048 5.848 9.048ZM21.0447 6.408C21.1087 6.152 21.1727 5.976 21.2367 5.88C21.3007 5.784 21.4367 5.736 21.6447 5.736C21.8687 5.736 22.1327 5.944 22.4367 6.36C22.7567 6.776 22.9167 7.176 22.9167 7.56C22.9167 7.768 22.5647 9 21.8607 11.256C21.1567 13.512 20.6127 15.304 20.2287 16.632C20.0367 17.304 19.7647 17.64 19.4127 17.64C19.2047 17.64 19.0287 17.552 18.8847 17.376C18.7407 17.2 18.6687 16.88 18.6687 16.416C18.6687 15.952 18.8527 15.112 19.2207 13.896C18.5487 14.984 17.8207 15.88 17.0367 16.584C16.2527 17.288 15.5327 17.64 14.8767 17.64C14.2367 17.64 13.6287 17.336 13.0527 16.728C12.4767 16.12 12.1887 15.496 12.1887 14.856C12.1887 13.336 12.6287 11.44 13.5087 9.168C14.4047 6.88 15.1487 5.736 15.7407 5.736C16.0287 5.736 16.2767 5.872 16.4847 6.144C16.7087 6.4 16.8207 6.696 16.8207 7.032C16.8207 7.176 16.6047 7.696 16.1727 8.592C15.7407 9.472 15.3087 10.512 14.8767 11.712C14.4447 12.896 14.2287 13.936 14.2287 14.832C14.2287 15.088 14.3087 15.304 14.4687 15.48C14.6287 15.64 14.8207 15.72 15.0447 15.72C15.6527 15.72 16.3727 15.184 17.2047 14.112C18.0527 13.04 18.8207 11.792 19.5087 10.368C20.1967 8.944 20.7087 7.624 21.0447 6.408ZM25.5434 8.664L25.4714 6.864C25.4714 6.112 25.6474 5.736 25.9994 5.736C26.3034 5.736 26.5914 5.936 26.8634 6.336C27.1514 6.72 27.2954 7.184 27.2954 7.728C27.2954 8.256 27.2794 8.656 27.2474 8.928C28.6394 6.816 29.9594 5.76 31.2074 5.76C31.9914 5.76 32.3834 5.952 32.3834 6.336C32.3834 6.528 32.2954 6.704 32.1194 6.864C31.9434 7.024 31.6634 7.208 31.2794 7.416C30.4314 7.784 29.7114 8.352 29.1194 9.12C28.5434 9.872 28.0714 10.728 27.7034 11.688C27.3354 12.648 27.0394 13.456 26.8154 14.112C26.6074 14.768 26.4474 15.28 26.3354 15.648C26.2234 16.016 26.0954 16.376 25.9514 16.728C25.6954 17.368 25.3994 17.688 25.0634 17.688C24.7914 17.688 24.5674 17.536 24.3914 17.232C24.2314 16.912 24.1514 16.608 24.1514 16.32C24.1514 16.016 24.2874 15.424 24.5594 14.544C25.2154 12.528 25.5434 10.568 25.5434 8.664ZM35.1207 2.328C35.1207 2.008 35.2487 1.704 35.5047 1.416C35.7607 1.128 36.0167 0.983999 36.2727 0.983999C36.5447 0.983999 36.8647 1.312 37.2327 1.968C37.6007 2.608 37.7847 3.144 37.7847 3.576C37.7847 3.736 37.7127 3.88 37.5687 4.008C37.4247 4.136 37.2727 4.2 37.1127 4.2C36.7287 4.2 36.2967 3.968 35.8167 3.504C35.3527 3.04 35.1207 2.648 35.1207 2.328ZM35.0007 5.736C35.3047 5.736 35.5927 5.92 35.8647 6.288C36.1367 6.656 36.2727 7.016 36.2727 7.368C36.2727 7.72 36.0407 8.776 35.5767 10.536C35.1127 12.28 34.5287 14.24 33.8247 16.416C33.5527 17.216 33.2087 17.616 32.7927 17.616C32.5687 17.616 32.3767 17.528 32.2167 17.352C32.0567 17.16 31.9767 16.952 31.9767 16.728C31.9767 16.488 32.0327 16.12 32.1447 15.624C32.2727 15.112 32.4487 14.44 32.6727 13.608C32.9127 12.76 33.0967 12.072 33.2247 11.544C33.3687 11.016 33.5127 10.424 33.6567 9.768C33.8007 9.096 33.9127 8.56 33.9927 8.16C34.0887 7.744 34.1927 7.328 34.3047 6.912C34.5287 6.128 34.7607 5.736 35.0007 5.736ZM48.9994 12.72C48.9994 14.08 48.3514 15.248 47.0554 16.224C45.7594 17.2 44.2794 17.688 42.6154 17.688C40.9514 17.688 39.6074 17.28 38.5834 16.464C37.5754 15.632 37.0714 14.776 37.0714 13.896C37.0714 13.016 37.3194 12.576 37.8154 12.576C38.1994 12.576 38.5994 12.768 39.0154 13.152C39.4314 13.536 39.8954 13.92 40.4074 14.304C40.9354 14.688 41.5274 14.88 42.1834 14.88C42.8394 14.88 43.5834 14.608 44.4154 14.064C45.2474 13.52 45.6634 13.064 45.6634 12.696C45.6634 12.328 45.2074 11.712 44.2954 10.848C43.3994 9.984 42.4954 9.096 41.5834 8.184C40.6874 7.256 40.2394 6.544 40.2394 6.048C40.2394 5.536 40.3274 4.984 40.5034 4.392C40.6954 3.8 40.9274 3.392 41.1994 3.168C42.0634 2.32 43.1754 1.592 44.5354 0.983999C45.9114 0.359999 47.1194 0.0479994 48.1594 0.0479994C48.7674 0.0479994 49.2714 0.311999 49.6714 0.839999C50.0714 1.352 50.2714 1.888 50.2714 2.448C50.2714 2.672 50.0874 2.856 49.7194 3C49.3674 3.128 48.8474 3.264 48.1594 3.408C47.4874 3.552 46.7994 3.76 46.0954 4.032C44.4634 4.64 43.6474 5.152 43.6474 5.568C43.6474 5.76 43.9274 6.112 44.4874 6.624C45.0474 7.12 45.6554 7.648 46.3114 8.208C46.9834 8.752 47.5994 9.448 48.1594 10.296C48.7194 11.128 48.9994 11.936 48.9994 12.72ZM61.0656 10.896C61.3536 11.152 61.4976 11.384 61.4976 11.592C61.4976 11.8 61.4016 12.232 61.2096 12.888C61.0176 13.544 60.8896 14.056 60.8256 14.424C60.7616 14.776 60.7056 15.056 60.6576 15.264C60.6256 15.472 60.6016 15.64 60.5856 15.768C60.5696 15.88 60.5376 16.024 60.4896 16.2C60.4576 16.376 60.4256 16.52 60.3936 16.632C60.3776 16.728 60.3456 16.848 60.2976 16.992C60.2656 17.12 60.2256 17.224 60.1776 17.304C60.1296 17.368 60.0736 17.44 60.0096 17.52C59.9136 17.648 59.7536 17.712 59.5296 17.712C59.3056 17.712 59.0256 17.488 58.6896 17.04C58.3696 16.592 58.1296 16.048 57.9696 15.408C56.4656 16.944 55.2016 17.712 54.1776 17.712C53.4896 17.712 52.7456 17.336 51.9456 16.584C51.1456 15.816 50.7456 15.056 50.7456 14.304C50.7456 13.536 51.0896 12.448 51.7776 11.04C52.4656 9.632 53.4016 8.328 54.5856 7.128C55.7856 5.928 56.9696 5.328 58.1376 5.328C58.8096 5.328 59.5856 5.72 60.4656 6.504C61.3456 7.288 61.7856 8.008 61.7856 8.664C61.7856 9.304 61.5456 10.048 61.0656 10.896ZM54.0816 14.688C54.7216 14.688 55.5696 14.256 56.6256 13.392C57.6976 12.512 58.3616 11.408 58.6176 10.08C58.6336 9.888 58.7696 9.776 59.0256 9.744C58.9776 8.832 58.8256 8.376 58.5696 8.376C57.9296 8.376 57.2096 8.792 56.4096 9.624C55.6256 10.456 54.9776 11.344 54.4656 12.288C53.9696 13.232 53.7216 13.928 53.7216 14.376C53.7216 14.504 53.7376 14.592 53.7696 14.64C53.8176 14.672 53.9216 14.688 54.0816 14.688ZM71.932 5.328C72.764 5.328 73.492 5.704 74.116 6.456C74.756 7.192 75.076 7.984 75.076 8.832C75.076 10.192 74.852 11.616 74.404 13.104C73.972 14.576 73.492 15.712 72.964 16.512C72.452 17.312 71.924 17.712 71.38 17.712C70.852 17.712 70.588 17.336 70.588 16.584C70.588 16.008 70.852 14.848 71.38 13.104C71.78 11.664 71.98 10.632 71.98 10.008C71.98 9.384 71.9 9.072 71.74 9.072C71.532 9.072 71.324 9.176 71.116 9.384C70.924 9.592 70.764 9.776 70.636 9.936C70.508 10.096 70.356 10.304 70.18 10.56C70.02 10.8 69.876 11.024 69.748 11.232C69.636 11.424 69.484 11.68 69.292 12C69.116 12.304 68.972 12.56 68.86 12.768C68.748 12.96 68.604 13.216 68.428 13.536C66.94 16.32 65.772 17.712 64.924 17.712C64.588 17.712 64.164 17.424 63.652 16.848C63.14 16.256 62.884 15.824 62.884 15.552C62.884 15.376 62.996 15 63.22 14.424C63.46 13.832 63.628 13.384 63.724 13.08C63.836 12.76 63.924 12.424 63.988 12.072C64.068 11.72 64.132 11.344 64.18 10.944C64.228 10.528 64.26 10.208 64.276 9.984C64.308 9.76 64.34 9.408 64.372 8.928C64.516 6.848 64.636 5.696 64.732 5.472C64.844 5.248 64.964 5.136 65.092 5.136C65.7 5.136 66.284 5.392 66.844 5.904C67.404 6.4 67.684 6.856 67.684 7.272C67.684 8.264 67.428 9.688 66.916 11.544C67.956 9.72 68.9 8.232 69.748 7.08C70.612 5.912 71.34 5.328 71.932 5.328ZM82.6051 8.184C82.4771 8.616 82.2851 9.224 82.0291 10.008C81.7891 10.776 81.4851 11.744 81.1171 12.912C80.7651 14.08 80.5891 14.704 80.5891 14.784C80.5891 14.848 80.7171 14.88 80.9731 14.88C81.2451 14.88 81.8771 14.704 82.8691 14.352C83.8611 13.984 84.4451 13.8 84.6211 13.8C85.0211 13.8 85.2211 14.072 85.2211 14.616C85.2211 15.16 84.6851 15.816 83.6131 16.584C82.5411 17.336 81.4211 17.712 80.2531 17.712C79.7411 17.712 79.1331 17.432 78.4291 16.872C77.7251 16.312 77.3731 15.744 77.3731 15.168C77.3731 14.688 77.6131 13.68 78.0931 12.144C78.5891 10.592 78.9251 9.528 79.1011 8.952C78.4771 9.128 78.0051 9.216 77.6851 9.216C77.3651 9.216 77.0291 9 76.6771 8.568C76.3251 8.12 76.1491 7.696 76.1491 7.296C76.1491 6.784 77.3891 6.352 79.8691 6C80.1731 4.512 80.3251 3.224 80.3251 2.136C80.3251 1.656 80.5651 1.416 81.0451 1.416C81.4611 1.416 81.9891 1.672 82.6291 2.184C83.2851 2.68 83.6131 3.176 83.6131 3.672C83.6131 4.152 83.5091 4.832 83.3011 5.712C84.0691 5.68 84.6531 5.664 85.0531 5.664C86.2531 5.664 86.8531 5.936 86.8531 6.48C86.8531 6.832 86.5011 7.136 85.7971 7.392C85.1091 7.632 84.0451 7.896 82.6051 8.184ZM97.4172 10.896C97.7052 11.152 97.8492 11.384 97.8492 11.592C97.8492 11.8 97.7532 12.232 97.5612 12.888C97.3692 13.544 97.2412 14.056 97.1772 14.424C97.1132 14.776 97.0572 15.056 97.0092 15.264C96.9772 15.472 96.9532 15.64 96.9372 15.768C96.9212 15.88 96.8892 16.024 96.8412 16.2C96.8092 16.376 96.7772 16.52 96.7452 16.632C96.7292 16.728 96.6972 16.848 96.6492 16.992C96.6172 17.12 96.5772 17.224 96.5292 17.304C96.4812 17.368 96.4252 17.44 96.3612 17.52C96.2652 17.648 96.1052 17.712 95.8812 17.712C95.6572 17.712 95.3772 17.488 95.0412 17.04C94.7212 16.592 94.4812 16.048 94.3212 15.408C92.8172 16.944 91.5532 17.712 90.5292 17.712C89.8412 17.712 89.0972 17.336 88.2972 16.584C87.4972 15.816 87.0972 15.056 87.0972 14.304C87.0972 13.536 87.4412 12.448 88.1292 11.04C88.8172 9.632 89.7532 8.328 90.9372 7.128C92.1372 5.928 93.3212 5.328 94.4892 5.328C95.1612 5.328 95.9372 5.72 96.8172 6.504C97.6972 7.288 98.1372 8.008 98.1372 8.664C98.1372 9.304 97.8972 10.048 97.4172 10.896ZM90.4332 14.688C91.0732 14.688 91.9212 14.256 92.9772 13.392C94.0492 12.512 94.7132 11.408 94.9692 10.08C94.9852 9.888 95.1212 9.776 95.3772 9.744C95.3292 8.832 95.1772 8.376 94.9212 8.376C94.2812 8.376 93.5612 8.792 92.7612 9.624C91.9772 10.456 91.3292 11.344 90.8172 12.288C90.3212 13.232 90.0732 13.928 90.0732 14.376C90.0732 14.504 90.0892 14.592 90.1212 14.64C90.1692 14.672 90.2732 14.688 90.4332 14.688ZM108.284 5.328C109.116 5.328 109.844 5.704 110.468 6.456C111.108 7.192 111.428 7.984 111.428 8.832C111.428 10.192 111.204 11.616 110.756 13.104C110.324 14.576 109.844 15.712 109.316 16.512C108.804 17.312 108.276 17.712 107.732 17.712C107.204 17.712 106.94 17.336 106.94 16.584C106.94 16.008 107.204 14.848 107.732 13.104C108.132 11.664 108.332 10.632 108.332 10.008C108.332 9.384 108.252 9.072 108.092 9.072C107.884 9.072 107.676 9.176 107.468 9.384C107.276 9.592 107.116 9.776 106.988 9.936C106.86 10.096 106.708 10.304 106.532 10.56C106.372 10.8 106.228 11.024 106.1 11.232C105.988 11.424 105.836 11.68 105.644 12C105.468 12.304 105.324 12.56 105.212 12.768C105.1 12.96 104.956 13.216 104.78 13.536C103.292 16.32 102.124 17.712 101.276 17.712C100.94 17.712 100.516 17.424 100.004 16.848C99.4916 16.256 99.2356 15.824 99.2356 15.552C99.2356 15.376 99.3476 15 99.5716 14.424C99.8116 13.832 99.9796 13.384 100.076 13.08C100.188 12.76 100.276 12.424 100.34 12.072C100.42 11.72 100.484 11.344 100.532 10.944C100.58 10.528 100.612 10.208 100.628 9.984C100.66 9.76 100.692 9.408 100.724 8.928C100.868 6.848 100.988 5.696 101.084 5.472C101.196 5.248 101.316 5.136 101.444 5.136C102.052 5.136 102.636 5.392 103.196 5.904C103.756 6.4 104.036 6.856 104.036 7.272C104.036 8.264 103.78 9.688 103.268 11.544C104.308 9.72 105.252 8.232 106.1 7.08C106.964 5.912 107.692 5.328 108.284 5.328ZM122.941 10.896C123.229 11.152 123.373 11.384 123.373 11.592C123.373 11.8 123.277 12.232 123.085 12.888C122.893 13.544 122.765 14.056 122.701 14.424C122.637 14.776 122.581 15.056 122.533 15.264C122.501 15.472 122.477 15.64 122.461 15.768C122.445 15.88 122.413 16.024 122.365 16.2C122.333 16.376 122.301 16.52 122.269 16.632C122.253 16.728 122.221 16.848 122.173 16.992C122.141 17.12 122.101 17.224 122.053 17.304C122.005 17.368 121.949 17.44 121.885 17.52C121.789 17.648 121.629 17.712 121.405 17.712C121.181 17.712 120.901 17.488 120.565 17.04C120.245 16.592 120.005 16.048 119.845 15.408C118.341 16.944 117.077 17.712 116.053 17.712C115.365 17.712 114.621 17.336 113.821 16.584C113.021 15.816 112.621 15.056 112.621 14.304C112.621 13.536 112.965 12.448 113.653 11.04C114.341 9.632 115.277 8.328 116.461 7.128C117.661 5.928 118.845 5.328 120.013 5.328C120.685 5.328 121.461 5.72 122.341 6.504C123.221 7.288 123.661 8.008 123.661 8.664C123.661 9.304 123.421 10.048 122.941 10.896ZM115.957 14.688C116.597 14.688 117.445 14.256 118.501 13.392C119.573 12.512 120.237 11.408 120.493 10.08C120.509 9.888 120.645 9.776 120.901 9.744C120.853 8.832 120.701 8.376 120.445 8.376C119.805 8.376 119.085 8.792 118.285 9.624C117.501 10.456 116.853 11.344 116.341 12.288C115.845 13.232 115.597 13.928 115.597 14.376C115.597 14.504 115.613 14.592 115.645 14.64C115.693 14.672 115.797 14.688 115.957 14.688Z" fill="white"/>
</svg>
