<svg width="111" height="110" viewBox="0 0 111 110" fill="none" xmlns="http://www.w3.org/2000/svg">
<g id="Graphic" clip-path="url(#clip0_824_8879)">
<path id="Vector" d="M17.6414 98.7133C18.3493 96.2842 19.8391 94.1566 21.8797 92.6607C22.9739 91.8362 24.1854 91.1803 25.474 90.7148C26.8702 90.1866 28.3266 89.8343 29.8098 89.6662C30.6731 89.554 30.2098 89.0907 29.1271 88.6907C25.2839 87.3739 21.3432 85.9791 17.3634 84.7305C17.5373 84.1444 17.7424 83.5682 17.9779 83.004L18.6656 81.2727L19.4801 79.5998C19.7532 79.0438 20.0019 78.4731 20.3238 77.9464C20.953 76.8783 21.5187 75.7761 22.2454 74.7666L23.2647 73.2205L24.3865 71.7378C27.3917 67.806 30.9064 64.2913 34.8382 61.2861C38.7936 58.3111 43.0482 55.7563 47.5333 53.6632C52.0126 51.5788 56.6156 49.7708 61.3162 48.2496C66.4518 46.5572 71.6654 45.0989 76.8596 43.6016C79.4542 42.8505 82.044 42.1043 84.624 41.3093C87.204 40.5144 89.7743 39.6999 92.2518 38.6757C94.7363 37.6913 97.0772 36.3774 99.2115 34.7691C101.344 33.2011 103.042 31.1167 104.147 28.7118C104.666 27.5082 105.002 26.2344 105.147 24.932C105.31 23.6382 105.272 22.3271 105.035 21.0449C104.562 18.5234 103.206 16.1044 100.987 14.8997C100.504 14.6022 99.7187 16.1678 100.07 16.4214C100.27 16.5412 100.461 16.6765 100.641 16.8261C100.801 16.9871 100.962 17.1481 101.153 17.2896C101.343 17.431 101.44 17.6455 101.596 17.8211C101.741 18.0064 101.871 18.202 101.987 18.4063C102.485 19.2574 102.826 20.1906 102.996 21.1619C103.344 23.3351 103.068 25.5623 102.201 27.5852C101.992 28.0799 101.747 28.559 101.47 29.019L101.026 29.6676C100.879 29.892 100.675 30.1065 100.499 30.3309C99.7517 31.2082 98.9203 32.0103 98.0166 32.7256C96.0532 34.1939 93.9049 35.3976 91.6275 36.3055C89.2093 37.2832 86.7433 38.1378 84.2387 38.866C74.0259 42.0264 63.4426 44.6307 53.1226 48.6105C48.9933 50.1803 44.975 52.0281 41.0955 54.1411C40.1299 54.6776 39.1739 55.2532 38.2131 55.8043L35.3942 57.6477L32.6727 59.6377L30.078 61.7934C26.672 64.7573 23.6522 68.1375 21.0896 71.8549C18.4826 75.6089 16.4904 79.7545 15.1882 84.1356C12.4292 83.2993 9.62313 82.6267 6.78482 82.1213C6.57464 82.0797 6.35681 82.1036 6.16059 82.1896C5.91674 81.5458 4.63891 81.3897 4.6828 82.1261C4.73096 82.922 4.82058 83.7148 4.95113 84.5013C5.12183 85.306 5.31686 86.0864 5.57048 86.8765C5.80107 87.6535 6.08292 88.4143 6.41421 89.154C6.76537 89.9051 7.15064 90.6319 7.55545 91.3293C7.9523 92.0364 8.39892 92.7144 8.89184 93.3582C9.39906 94.002 9.92572 94.6262 10.472 95.2115C11.0094 95.7993 11.5846 96.3516 12.1937 96.8648C12.8179 97.3818 13.4568 97.8646 14.0957 98.3084L14.1201 98.4695C14.1542 98.728 14.4761 98.8254 14.8273 98.7962L15.515 99.2302C16.0953 99.518 17.4658 99.2693 17.6414 98.7133ZM11.7936 88.3592C11.8697 88.4201 11.9533 88.4709 12.0424 88.5104L12.3545 88.6274L11.8912 88.5444L11.7936 88.3592ZM11.4864 87.7788C11.0913 87.0813 10.6963 86.3742 10.2963 85.6719C10.8182 85.8718 11.345 86.0474 11.8717 86.223C11.6473 86.5351 11.8571 87.0082 12.6374 87.1643L12.9935 87.2374L12.0082 87.3935C11.8937 87.4018 11.7839 87.4423 11.6915 87.5105C11.5992 87.5787 11.528 87.6718 11.4864 87.7788ZM26.4689 88.8615L26.2348 88.9103C26.1639 88.8535 26.0851 88.8074 26.0008 88.7737C25.8057 88.6956 25.6106 88.6274 25.4106 88.5543L26.4689 88.8615ZM24.8547 89.2857L24.645 89.3491C24.6778 89.331 24.7048 89.304 24.7229 89.2712L24.8547 89.2857ZM24.323 89.4565C23.2425 89.8303 22.2005 90.3072 21.2114 90.8806C21.1549 90.8311 21.0926 90.7886 21.026 90.7538C20.5773 90.5685 20.1288 90.3929 19.6849 90.2124C19.919 89.9783 19.7824 89.637 19.1532 89.4176L17.8462 88.9492C19.7928 88.8984 21.7392 89.062 23.65 89.437C23.8716 89.4815 24.0991 89.4881 24.323 89.4565ZM20.2993 91.5293C19.9579 91.7732 19.6313 92.0316 19.3192 92.3047C18.4364 92.0462 17.5487 91.7731 16.6659 91.4756C16.9309 91.5164 17.2019 91.4929 17.4561 91.4073L20.2993 91.5293ZM17.8463 93.7972C17.1621 94.6318 16.5777 95.5435 16.1051 96.5137C15.9866 96.4252 15.8815 96.3201 15.7929 96.2016C16.1831 96.0943 16.4514 95.8846 16.2612 95.6163L15.9636 95.1823C16.2225 94.9058 16.5388 94.6893 16.8903 94.5482C17.3829 94.2507 17.1098 93.8995 16.6074 93.7386L17.8463 93.7972ZM13.8567 95.7188C12.9919 94.9248 12.179 94.076 11.423 93.1777C10.7001 92.2565 10.0386 91.2888 9.4429 90.2807C8.82245 89.2552 8.28425 88.1822 7.83342 87.0716C7.34541 85.9456 6.93157 84.7888 6.59461 83.6088C6.59461 83.6088 6.63365 83.6478 6.6873 83.6429L7.97487 83.9551C7.90115 84.013 7.84975 84.0947 7.82931 84.1862C7.80887 84.2778 7.82059 84.3736 7.86265 84.4575C8.67225 85.9889 9.52584 87.4958 10.272 88.8761C10.194 89.1199 10.3306 89.4126 10.6964 89.6126L11.0719 90.2125C10.9353 90.4466 11.0182 90.7343 11.4669 90.9002C11.901 91.6366 12.3009 92.3486 12.6813 93.0412C12.6813 93.0412 12.6471 93.0754 12.6325 93.09C12.6892 94.0322 13.113 94.9146 13.8129 95.548L13.8567 95.7188ZM14.8029 85.6328L14.7297 85.9109C13.4861 85.5779 12.2631 85.1724 11.067 84.6965L14.8029 85.6328ZM16.9341 86.1839L17.0903 86.2229C17.0229 86.2353 16.9584 86.2601 16.9001 86.2961L16.9341 86.1839Z" fill="#7DFFAF"/>
</g>
<defs>
<clipPath id="clip0_824_8879">
<rect width="121.069" height="33.7072" fill="white" transform="matrix(-0.707107 0.707107 0.707107 0.707107 86.5261 0)"/>
</clipPath>
</defs>
</svg>
